<svg width="36" height="33" viewBox="0 0 36 33" fill="none" xmlns="http://www.w3.org/2000/svg">
<path d="M34.0204 16.5C34.0204 25.0053 26.6854 32 17.5102 32C8.33506 32 1 25.0053 1 16.5C1 7.99474 8.33506 1 17.5102 1C26.6854 1 34.0204 7.99474 34.0204 16.5Z" stroke="black" stroke-width="2"/>
<path d="M18.2173 7.37449C17.8268 6.98397 17.1936 6.98397 16.8031 7.37449L10.4391 13.7385C10.0486 14.129 10.0486 14.7621 10.4391 15.1527C10.8296 15.5432 11.4628 15.5432 11.8533 15.1527L17.5102 9.49581L23.167 15.1527C23.5576 15.5432 24.1907 15.5432 24.5813 15.1527C24.9718 14.7621 24.9718 14.129 24.5813 13.7385L18.2173 7.37449ZM18.5102 24.9183L18.5102 8.0816L16.5102 8.0816L16.5102 24.9183L18.5102 24.9183Z" fill="black"/>
</svg>
